<?xml version="1.0" encoding="UTF-8"?>
<svg width="1176px" height="681px" viewBox="0 0 1176 681" version="1.1" xmlns="http://www.w3.org/2000/svg" xmlns:xlink="http://www.w3.org/1999/xlink">
    <!-- Generator: Sketch 44.1 (41455) - http://www.bohemiancoding.com/sketch -->
    <title>warkon</title>
    <desc>Created with Sketch.</desc>
    <defs></defs>
    <g id="Page-1" stroke="none" stroke-width="1" fill="none" fill-rule="evenodd">
        <g id="Artboard-2" transform="translate(-116.000000, -12.000000)" fill="#FFFFFF">
            <g id="warkon" transform="translate(116.000000, 0.000000)">
                <path d="M0.152,414.92 L43.352,414.92 L49.4,516.584 L50.552,564.968 L51.416,564.968 C52.5680058,558.823969 54.4879866,549.608061 57.176,537.32 L61.496,516.584 L74.456,463.304 L100.088,463.304 L112.472,516.584 L116.792,538.472 C119.288012,549.608056 121.111994,558.439967 122.264,564.968 L123.416,564.968 L123.992,545.672 C123.992,535.68795 124.279997,525.992047 124.856,516.584 L130.328,414.92 L170.648,414.92 L147.32,605 L102.968,605 L91.16,544.52 C88.4719866,530.887932 86.7440038,518.792053 85.976,508.232 L85.112,508.232 C83.7679933,521.480066 82.0400106,533.575945 79.928,544.52 L68.696,605 L25.208,605 L0.152,414.92 Z M262.856,414.92 L313.544,414.92 L372.008,605 L327.08,605 L315.848,559.496 L259.112,559.496 L247.592,605 L204.392,605 L262.856,414.92 Z M307.208,526.376 L302.888,508.52 L287.912,447.176 L286.76,447.176 L274.952,496.712 C274.375997,498.63201 273.416007,502.56797 272.072,508.52 L267.752,526.376 L307.208,526.376 Z M424.76,414.92 L491.288,414.92 C513.36811,414.92 530.983934,419.479954 544.136,428.6 C557.288066,437.720046 563.864,452.839894 563.864,473.96 C563.864,487.400067 560.88803,498.727954 554.936,507.944 C548.98397,517.160046 540.824052,524.071977 530.456,528.68 L572.792,605 L525.272,605 L489.272,536.168 L467.096,536.168 L467.096,605 L424.76,605 L424.76,414.92 Z M487.832,502.472 C499.160057,502.472 507.703971,500.072024 513.464,495.272 C519.224029,490.471976 522.104,483.368047 522.104,473.96 C522.104,464.743954 519.320028,458.216019 513.752,454.376 C508.183972,450.535981 499.544059,448.616 487.832,448.616 L467.096,448.616 L467.096,502.472 L487.832,502.472 Z M626.984,414.92 L669.896,414.92 L669.896,493.256 L670.76,493.256 L726.344,414.92 L773,414.92 L716.84,490.664 L778.472,605 L731.528,605 L691.784,524.36 L669.896,553.736 L669.896,605 L626.984,605 L626.984,414.92 Z M857.288,596.504 C845.863943,588.53596 836.984032,577.064075 830.648,562.088 C824.311968,547.111925 821.144,529.448102 821.144,509.096 C821.144,488.743898 824.311968,471.224073 830.648,456.536 C836.984032,441.847927 845.815943,430.664038 857.144,422.984 C868.472057,415.303962 881.623925,411.464 896.6,411.464 C911.576075,411.464 924.727943,415.303962 936.056,422.984 C947.384057,430.664038 956.215968,441.847927 962.552,456.536 C968.888032,471.224073 972.056,488.743898 972.056,509.096 C972.056,529.448102 968.888032,547.111925 962.552,562.088 C956.215968,577.064075 947.336057,588.53596 935.912,596.504 C924.487943,604.47204 911.384074,608.456 896.6,608.456 C881.815926,608.456 868.712057,604.47204 857.288,596.504 Z M919.928,554.888 C925.688029,543.559943 928.568,528.296096 928.568,509.096 C928.568,490.087905 925.688029,475.160054 919.928,464.312 C914.167971,453.463946 906.392049,448.04 896.6,448.04 C886.807951,448.04 879.032029,453.463946 873.272,464.312 C867.511971,475.160054 864.632,490.087905 864.632,509.096 C864.632,528.296096 867.511971,543.559943 873.272,554.888 C879.032029,566.216057 886.807951,571.88 896.6,571.88 C906.392049,571.88 914.167971,566.216057 919.928,554.888 Z M1032.008,414.92 L1075.208,414.92 L1114.952,510.248 L1131.08,552.008 L1132.232,552.008 C1131.464,543.94396 1130.792,538.184017 1130.216,534.728 C1130.024,532.039987 1129.30401,525.080056 1128.056,513.848 C1126.80799,502.615944 1126.184,492.392046 1126.184,483.176 L1126.184,414.92 L1166.792,414.92 L1166.792,605 L1123.592,605 L1083.848,509.384 L1067.72,468.2 L1066.568,468.2 L1068.584,487.496 C1071.27201,509.000108 1072.616,525.415943 1072.616,536.744 L1072.616,605 L1032.008,605 L1032.008,414.92 Z" id="WARKON-Copy"></path>
                <path d="M428.448163,633.6 L437.268163,633.6 L442.848163,658.89 L444.738163,668.52 L445.098163,668.52 L449.868163,658.89 L463.548163,633.6 L472.368163,633.6 L462.918163,693 L456.078163,693 L461.388163,659.43 C461.988166,655.649981 463.248153,649.590042 465.168163,641.25 L464.808163,641.25 L458.688163,653.94 L445.548163,676.89 L441.408163,676.89 L435.558163,653.94 L433.218163,641.25 L432.948163,641.25 C432.34816,649.590042 431.718166,655.649981 431.058163,659.43 L425.748163,693 L418.998163,693 L428.448163,633.6 Z M500.058775,633.6 L508.518775,633.6 L518.958775,693 L511.038775,693 L508.338775,674.82 L486.918775,674.82 L478.368775,693 L470.718775,693 L500.058775,633.6 Z M507.438775,668.79 L506.088775,659.7 C504.94877,652.019962 504.048779,645.360028 503.388775,639.72 L503.028775,639.72 C500.148761,646.500034 497.148791,653.159967 494.028775,659.7 L489.798775,668.79 L507.438775,668.79 Z M536.839388,633.6 L544.489388,633.6 L557.629388,671.13 L561.679388,683.28 L561.859388,683.28 L562.399388,677.07 C562.519388,675.929994 562.714386,674.040013 562.984388,671.4 C563.254389,668.759987 563.539386,666.45001 563.839388,664.47 L568.699388,633.6 L575.899388,633.6 L566.449388,693 L558.799388,693 L545.569388,655.47 L541.519388,643.32 L541.339388,643.32 L540.799388,649.62 C540.319385,655.020027 539.86939,659.099986 539.449388,661.86 L534.499388,693 L527.389388,693 L536.839388,633.6 Z" id="MAN-Copy"></path>
                <path d="M636.63,325.6 L654.72,325.6 C660.840031,325.6 665.579983,326.724989 668.94,328.975 C672.300017,331.225011 673.98,334.869975 673.98,339.91 C673.98,346.930035 671.700023,352.269982 667.14,355.93 C662.579977,359.590018 656.520038,361.42 648.96,361.42 L638.34,361.42 L634.65,385 L627.18,385 L636.63,325.6 Z M648.96,355.3 C654.96003,355.3 659.369986,354.115012 662.19,351.745 C665.010014,349.374988 666.42,345.730025 666.42,340.81 C666.42,337.509983 665.310011,335.155007 663.09,333.745 C660.869989,332.334993 657.420023,331.63 652.74,331.63 L643.11,331.63 L639.33,355.3 L648.96,355.3 Z M691.590612,325.6 L698.970612,325.6 L690.510612,378.61 L719.760612,378.61 L718.770612,385 L682.140612,385 L691.590612,325.6 Z M754.381225,325.6 L762.841225,325.6 L773.281225,385 L765.361225,385 L762.661225,366.82 L741.241225,366.82 L732.691225,385 L725.041225,385 L754.381225,325.6 Z M761.761225,360.79 L760.411225,351.7 C759.271219,344.019962 758.371228,337.360028 757.711225,331.72 L757.351225,331.72 C754.47121,338.500034 751.47124,345.159967 748.351225,351.7 L744.121225,360.79 L761.761225,360.79 Z" id="PLA-Copy"></path>
                <path d="M13.34,167.4 L18.26,167.4 L12.62,202.74 L32.12,202.74 L31.46,207 L7.04,207 L13.34,167.4 Z M56.48,167.4 L62.12,167.4 L69.08,207 L63.8,207 L62,194.88 L47.72,194.88 L42.02,207 L36.92,207 L56.48,167.4 Z M61.4,190.86 L60.5,184.8 C59.7399962,179.679974 59.1400022,175.240019 58.7,171.48 L58.46,171.48 C56.5399904,176.000023 54.5400104,180.439978 52.46,184.8 L49.64,190.86 L61.4,190.86 Z M83.3,167.4 L95.54,167.4 C99.340019,167.4 102.319989,168.129993 104.48,169.59 C106.640011,171.050007 107.72,173.379984 107.72,176.58 C107.72,180.060017 106.75001,182.909989 104.81,185.13 C102.86999,187.350011 100.240017,188.879996 96.92,189.72 L104.18,207 L98.48,207 L91.64,190.26 L84.62,190.26 L81.98,207 L77,207 L83.3,167.4 Z M91.82,186.18 C95.3000174,186.18 97.9699907,185.420008 99.83,183.9 C101.690009,182.379992 102.62,180.160015 102.62,177.24 C102.62,175.15999 101.920007,173.670005 100.52,172.77 C99.119993,171.869996 97.0000142,171.42 94.16,171.42 L87.62,171.42 L85.28,186.18 L91.82,186.18 Z M128.48,167.4 L134.12,167.4 L141.08,207 L135.8,207 L134,194.88 L119.72,194.88 L114.02,207 L108.92,207 L128.48,167.4 Z M133.4,190.86 L132.5,184.8 C131.739996,179.679974 131.140002,175.240019 130.7,171.48 L130.46,171.48 C128.53999,176.000023 126.54001,180.439978 124.46,184.8 L121.64,190.86 L133.4,190.86 Z" id="LARA-Copy"></path>
                <path d="M1006.4,167.4 L1016,167.4 C1021.04003,167.4 1024.88999,168.749987 1027.55,171.45 C1030.21001,174.150014 1031.54,177.999975 1031.54,183 C1031.54,187.840024 1030.69001,192.059982 1028.99,195.66 C1027.28999,199.260018 1024.81002,202.04999 1021.55,204.03 C1018.28998,206.01001 1014.42002,207 1009.94,207 L1000.1,207 L1006.4,167.4 Z M1010.06,202.92 C1015.30003,202.92 1019.31999,201.170018 1022.12,197.67 C1024.92001,194.169983 1026.32,189.46003 1026.32,183.54 C1026.32,179.659981 1025.37001,176.68001 1023.47,174.6 C1021.56999,172.51999 1018.76002,171.48 1015.04,171.48 L1010.72,171.48 L1005.74,202.92 L1010.06,202.92 Z M1052.48,167.4 L1058.12,167.4 L1065.08,207 L1059.8,207 L1058,194.88 L1043.72,194.88 L1038.02,207 L1032.92,207 L1052.48,167.4 Z M1057.4,190.86 L1056.5,184.8 C1055.74,179.679974 1055.14,175.240019 1054.7,171.48 L1054.46,171.48 C1052.53999,176.000023 1050.54001,180.439978 1048.46,184.8 L1045.64,190.86 L1057.4,190.86 Z M1075.88,167.4 L1081.16,167.4 L1084.1,188.82 C1084.34,190.380008 1084.62,192.559986 1084.94,195.36 L1085.78,201.9 L1086.02,201.9 C1087.14001,199.539988 1088.45999,196.640017 1089.98,193.2 C1091.10001,190.679987 1091.74,189.220002 1091.9,188.82 L1101.62,167.4 L1106.72,167.4 L1087.94,207 L1082.12,207 L1075.88,167.4 Z M1109.36,202.74 L1119.14,202.74 L1124.06,171.6 L1114.28,171.6 L1115,167.4 L1139.6,167.4 L1138.88,171.6 L1129.1,171.6 L1124.18,202.74 L1133.96,202.74 L1133.3,207 L1108.7,207 L1109.36,202.74 Z M1150.4,167.4 L1160,167.4 C1165.04003,167.4 1168.88999,168.749987 1171.55,171.45 C1174.21001,174.150014 1175.54,177.999975 1175.54,183 C1175.54,187.840024 1174.69001,192.059982 1172.99,195.66 C1171.28999,199.260018 1168.81002,202.04999 1165.55,204.03 C1162.28998,206.01001 1158.42002,207 1153.94,207 L1144.1,207 L1150.4,167.4 Z M1154.06,202.92 C1159.30003,202.92 1163.31999,201.170018 1166.12,197.67 C1168.92001,194.169983 1170.32,189.46003 1170.32,183.54 C1170.32,179.659981 1169.37001,176.68001 1167.47,174.6 C1165.56999,172.51999 1162.76002,171.48 1159.04,171.48 L1154.72,171.48 L1149.74,202.92 L1154.06,202.92 Z" id="DAVID-Copy"></path>
                <path d="M467.2,32.65 C466.733331,31.98333 466.033338,31.4250022 465.1,30.975 C464.166662,30.5249977 463.216671,30.3 462.25,30.3 C461.149994,30.3 460.183337,30.5249977 459.35,30.975 C458.516662,31.4250022 457.825003,32.016663 457.275,32.75 C456.724997,33.483337 456.316668,34.3083288 456.05,35.225 C455.783332,36.1416713 455.65,37.066662 455.65,38 C455.65,38.933338 455.791665,39.8583287 456.075,40.775 C456.358335,41.6916712 456.78333,42.516663 457.35,43.25 C457.91667,43.983337 458.624996,44.5749978 459.475,45.025 C460.325004,45.4750023 461.316661,45.7 462.45,45.7 C463.383338,45.7 464.316662,45.5166685 465.25,45.15 C466.183338,44.7833315 466.933331,44.2500035 467.5,43.55 L471.25,47.35 C470.249995,48.416672 468.975008,49.2416638 467.425,49.825 C465.874992,50.4083362 464.200009,50.7 462.4,50.7 C460.633325,50.7 458.958341,50.4166695 457.375,49.85 C455.791659,49.2833305 454.408339,48.4500055 453.225,47.35 C452.041661,46.2499945 451.108337,44.9166745 450.425,43.35 C449.741663,41.7833255 449.4,40.00001 449.4,38 C449.4,36.066657 449.741663,34.3166745 450.425,32.75 C451.108337,31.1833255 452.033327,29.8500055 453.2,28.75 C454.366672,27.6499945 455.724992,26.800003 457.275,26.2 C458.825008,25.599997 460.483324,25.3 462.25,25.3 C464.016675,25.3 465.724992,25.63333 467.375,26.3 C469.025008,26.96667 470.333328,27.8833275 471.3,29.05 L467.2,32.65 Z M494.1,35.6 C494.1,34.8333295 493.991668,34.1000035 493.775,33.4 C493.558332,32.6999965 493.216669,32.083336 492.75,31.55 C492.283331,31.016664 491.69167,30.5916682 490.975,30.275 C490.25833,29.9583317 489.416672,29.8 488.45,29.8 C486.649991,29.8 485.125006,30.3416613 483.875,31.425 C482.624994,32.5083387 481.933334,33.8999915 481.8,35.6 L494.1,35.6 Z M500.1,38.3 L500.1,39.1 C500.1,39.366668 500.083333,39.633332 500.05,39.9 L481.8,39.9 C481.866667,40.766671 482.091665,41.5583297 482.475,42.275 C482.858335,42.9916702 483.366663,43.6083308 484,44.125 C484.633336,44.6416692 485.349996,45.0499985 486.15,45.35 C486.950004,45.6500015 487.783329,45.8 488.65,45.8 C490.150008,45.8 491.416661,45.5250027 492.45,44.975 C493.483339,44.4249973 494.33333,43.6666715 495,42.7 L499,45.9 C496.633321,49.100016 493.200022,50.7 488.7,50.7 C486.833324,50.7 485.116674,50.4083362 483.55,49.825 C481.983325,49.2416638 480.625006,48.416672 479.475,47.35 C478.324994,46.283328 477.425003,44.9750078 476.775,43.425 C476.124997,41.8749923 475.8,40.1166765 475.8,38.15 C475.8,36.216657 476.124997,34.4583412 476.775,32.875 C477.425003,31.2916587 478.316661,29.9416722 479.45,28.825 C480.583339,27.7083277 481.924992,26.8416697 483.475,26.225 C485.025008,25.6083302 486.699991,25.3 488.5,25.3 C490.166675,25.3 491.708326,25.5749972 493.125,26.125 C494.541674,26.6750028 495.766661,27.4916613 496.8,28.575 C497.833338,29.6583387 498.641664,31.0083252 499.225,32.625 C499.808336,34.2416748 500.1,36.1333225 500.1,38.3 Z M508,12.2 L514,12.2 L514,50 L508,50 L508,12.2 Z M540.2,35.6 C540.2,34.8333295 540.091668,34.1000035 539.875,33.4 C539.658332,32.6999965 539.316669,32.083336 538.85,31.55 C538.383331,31.016664 537.79167,30.5916682 537.075,30.275 C536.35833,29.9583317 535.516672,29.8 534.55,29.8 C532.749991,29.8 531.225006,30.3416613 529.975,31.425 C528.724994,32.5083387 528.033334,33.8999915 527.9,35.6 L540.2,35.6 Z M546.2,38.3 L546.2,39.1 C546.2,39.366668 546.183334,39.633332 546.15,39.9 L527.9,39.9 C527.966667,40.766671 528.191665,41.5583297 528.575,42.275 C528.958335,42.9916702 529.466663,43.6083308 530.1,44.125 C530.733336,44.6416692 531.449996,45.0499985 532.25,45.35 C533.050004,45.6500015 533.883329,45.8 534.75,45.8 C536.250008,45.8 537.516662,45.5250027 538.55,44.975 C539.583338,44.4249973 540.43333,43.6666715 541.1,42.7 L545.1,45.9 C542.733321,49.100016 539.300023,50.7 534.8,50.7 C532.933324,50.7 531.216674,50.4083362 529.65,49.825 C528.083326,49.2416638 526.725006,48.416672 525.575,47.35 C524.424994,46.283328 523.525003,44.9750078 522.875,43.425 C522.224997,41.8749923 521.9,40.1166765 521.9,38.15 C521.9,36.216657 522.224997,34.4583412 522.875,32.875 C523.525003,31.2916587 524.416661,29.9416722 525.55,28.825 C526.683339,27.7083277 528.024992,26.8416697 529.575,26.225 C531.125008,25.6083302 532.799991,25.3 534.6,25.3 C536.266675,25.3 537.808326,25.5749972 539.225,26.125 C540.641674,26.6750028 541.866661,27.4916613 542.9,28.575 C543.933338,29.6583387 544.741664,31.0083252 545.325,32.625 C545.908336,34.2416748 546.2,36.1333225 546.2,38.3 Z M560.1,12.2 L560.1,29.05 L560.25,29.05 C560.550002,28.649998 560.933331,28.2333355 561.4,27.8 C561.866669,27.3666645 562.424997,26.9666685 563.075,26.6 C563.725003,26.2333315 564.483329,25.9250012 565.35,25.675 C566.216671,25.4249988 567.199995,25.3 568.3,25.3 C570.000009,25.3 571.56666,25.6249967 573,26.275 C574.43334,26.9250033 575.666662,27.816661 576.7,28.95 C577.733338,30.083339 578.533331,31.416659 579.1,32.95 C579.66667,34.483341 579.95,36.1333245 579.95,37.9 C579.95,39.6666755 579.675003,41.3249923 579.125,42.875 C578.574997,44.4250078 577.791672,45.7749943 576.775,46.925 C575.758328,48.0750058 574.525007,48.9916633 573.075,49.675 C571.624993,50.3583368 569.983343,50.7 568.15,50.7 C566.449992,50.7 564.858341,50.333337 563.375,49.6 C561.891659,48.866663 560.733338,47.800007 559.9,46.4 L559.8,46.4 L559.8,50 L554.1,50 L554.1,12.2 L560.1,12.2 Z M573.85,37.9 C573.85,36.966662 573.708335,36.0416713 573.425,35.125 C573.141665,34.2083287 572.716669,33.383337 572.15,32.65 C571.58333,31.916663 570.866671,31.3250022 570,30.875 C569.133329,30.4249978 568.116673,30.2 566.95,30.2 C565.849994,30.2 564.866671,30.433331 564,30.9 C563.133329,31.366669 562.39167,31.966663 561.775,32.7 C561.15833,33.433337 560.691668,34.266662 560.375,35.2 C560.058332,36.133338 559.9,37.066662 559.9,38 C559.9,38.933338 560.058332,39.8583287 560.375,40.775 C560.691668,41.6916712 561.15833,42.516663 561.775,43.25 C562.39167,43.983337 563.133329,44.5749978 564,45.025 C564.866671,45.4750023 565.849994,45.7 566.95,45.7 C568.116673,45.7 569.133329,45.466669 570,45 C570.866671,44.533331 571.58333,43.933337 572.15,43.2 C572.716669,42.466663 573.141665,41.633338 573.425,40.7 C573.708335,39.766662 573.85,38.833338 573.85,37.9 Z M587.75,26 L593.5,26 L593.5,30 L593.6,30 C594.26667,28.599993 595.199994,27.466671 596.4,26.6 C597.600006,25.733329 598.999992,25.3 600.6,25.3 C600.833334,25.3 601.083332,25.3083332 601.35,25.325 C601.616668,25.3416667 601.849999,25.383333 602.05,25.45 L602.05,30.95 C601.649998,30.8499995 601.308335,30.7833335 601.025,30.75 C600.741665,30.7166665 600.466668,30.7 600.2,30.7 C598.833326,30.7 597.733338,30.9499975 596.9,31.45 C596.066663,31.9500025 595.416669,32.5499965 594.95,33.25 C594.483331,33.9500035 594.166668,34.666663 594,35.4 C593.833332,36.133337 593.75,36.7166645 593.75,37.15 L593.75,50 L587.75,50 L587.75,26 Z M622.2,46.95 L622.05,46.95 C621.449997,48.016672 620.48334,48.8916633 619.15,49.575 C617.81666,50.2583368 616.300008,50.6 614.6,50.6 C613.633329,50.6 612.625005,50.4750013 611.575,50.225 C610.524995,49.9749988 609.558338,49.5583363 608.675,48.975 C607.791662,48.3916638 607.058336,47.6250048 606.475,46.675 C605.891664,45.7249953 605.6,44.550007 605.6,43.15 C605.6,41.349991 606.108328,39.916672 607.125,38.85 C608.141672,37.783328 609.449992,36.9666695 611.05,36.4 C612.650008,35.8333305 614.42499,35.4583343 616.375,35.275 C618.32501,35.0916658 620.233324,35 622.1,35 L622.1,34.4 C622.1,32.8999925 621.558339,31.7916703 620.475,31.075 C619.391661,30.3583298 618.100008,30 616.6,30 C615.333327,30 614.116673,30.266664 612.95,30.8 C611.783328,31.333336 610.81667,31.9833295 610.05,32.75 L606.95,29.1 C608.316673,27.833327 609.891658,26.8833365 611.675,26.25 C613.458342,25.6166635 615.266658,25.3 617.1,25.3 C619.233344,25.3 620.99166,25.599997 622.375,26.2 C623.75834,26.800003 624.849996,27.5833285 625.65,28.55 C626.450004,29.5166715 627.008332,30.599994 627.325,31.8 C627.641668,33.000006 627.8,34.199994 627.8,35.4 L627.8,50 L622.2,50 L622.2,46.95 Z M622.1,39.05 L620.75,39.05 C619.783329,39.05 618.766672,39.0916662 617.7,39.175 C616.633328,39.2583337 615.650005,39.4416652 614.75,39.725 C613.849995,40.0083348 613.100003,40.4083307 612.5,40.925 C611.899997,41.4416692 611.6,42.1499955 611.6,43.05 C611.6,43.6166695 611.724999,44.0916647 611.975,44.475 C612.225001,44.8583352 612.549998,45.1666655 612.95,45.4 C613.350002,45.6333345 613.799998,45.7999995 614.3,45.9 C614.800003,46.0000005 615.299998,46.05 615.8,46.05 C617.866677,46.05 619.433328,45.5000055 620.5,44.4 C621.566672,43.2999945 622.1,41.8000095 622.1,39.9 L622.1,39.05 Z M632.85,30.8 L632.85,26 L637.05,26 L637.05,19.05 L642.95,19.05 L642.95,26 L648.95,26 L648.95,30.8 L642.95,30.8 L642.95,41.95 C642.95,43.016672 643.141665,43.8999965 643.525,44.6 C643.908335,45.3000035 644.76666,45.65 646.1,45.65 C646.500002,45.65 646.933331,45.6083338 647.4,45.525 C647.866669,45.4416663 648.283332,45.3166675 648.65,45.15 L648.85,49.85 C648.316664,50.050001 647.683337,50.2083328 646.95,50.325 C646.216663,50.4416673 645.51667,50.5 644.85,50.5 C643.249992,50.5 641.950005,50.2750023 640.95,49.825 C639.949995,49.3749978 639.158336,48.7583373 638.575,47.975 C637.991664,47.1916628 637.591668,46.2916718 637.375,45.275 C637.158332,44.2583283 637.05,43.1666725 637.05,42 L637.05,30.8 L632.85,30.8 Z M655.4,26 L661.4,26 L661.4,50 L655.4,50 L655.4,26 Z M654.55,17.85 C654.55,16.8833285 654.90833,16.0416702 655.625,15.325 C656.34167,14.6083297 657.249994,14.25 658.35,14.25 C659.450006,14.25 660.374996,14.5916632 661.125,15.275 C661.875004,15.9583368 662.25,16.8166615 662.25,17.85 C662.25,18.8833385 661.875004,19.7416632 661.125,20.425 C660.374996,21.1083367 659.450006,21.45 658.35,21.45 C657.249994,21.45 656.34167,21.0916702 655.625,20.375 C654.90833,19.6583297 654.55,18.8166715 654.55,17.85 Z M670.7,26 L676.4,26 L676.4,29.85 L676.5,29.85 C677.033336,28.649994 677.958327,27.5916712 679.275,26.675 C680.591673,25.7583287 682.149991,25.3 683.95,25.3 C685.516675,25.3 686.858328,25.5749972 687.975,26.125 C689.091672,26.6750028 690.00833,27.3999955 690.725,28.3 C691.44167,29.2000045 691.966665,30.2333275 692.3,31.4 C692.633335,32.5666725 692.8,33.7666605 692.8,35 L692.8,50 L686.8,50 L686.8,36.7 C686.8,35.9999965 686.750001,35.2666705 686.65,34.5 C686.55,33.7333295 686.333335,33.0416697 686,32.425 C685.666665,31.8083302 685.208336,31.300002 684.625,30.9 C684.041664,30.499998 683.266672,30.3 682.3,30.3 C681.333328,30.3 680.500004,30.4916647 679.8,30.875 C679.099997,31.2583353 678.525002,31.749997 678.075,32.35 C677.624998,32.950003 677.283335,33.6416627 677.05,34.425 C676.816665,35.2083372 676.7,35.999996 676.7,36.8 L676.7,50 L670.7,50 L670.7,26 Z M726.2,26 L726.2,47.85 C726.2,50.0166775 725.933336,51.9749913 725.4,53.725 C724.866664,55.4750088 724.041672,56.9583273 722.925,58.175 C721.808328,59.3916727 720.400009,60.33333 718.7,61 C716.999992,61.66667 714.983345,62 712.65,62 C711.683329,62 710.658339,61.9166675 709.575,61.75 C708.491661,61.5833325 707.425005,61.333335 706.375,61 C705.324995,60.666665 704.316671,60.2500025 703.35,59.75 C702.383329,59.2499975 701.516671,58.6833365 700.75,58.05 L704.2,53.4 C705.366673,54.5000055 706.683326,55.3416638 708.15,55.925 C709.616674,56.5083363 711.099993,56.8 712.6,56.8 C714.033341,56.8 715.241662,56.5916687 716.225,56.175 C717.208338,55.7583312 717.991664,55.183337 718.575,54.45 C719.158336,53.716663 719.574999,52.850005 719.825,51.85 C720.075001,50.849995 720.2,49.750006 720.2,48.55 L720.2,46.8 L720.1,46.8 C719.233329,47.9666725 718.125007,48.8583303 716.775,49.475 C715.424993,50.0916698 713.916675,50.4 712.25,50.4 C710.449991,50.4 708.816674,50.06667 707.35,49.4 C705.883326,48.73333 704.641672,47.833339 703.625,46.7 C702.608328,45.566661 701.816669,44.2416743 701.25,42.725 C700.683331,41.2083258 700.4,39.6000085 700.4,37.9 C700.4,36.166658 700.674997,34.533341 701.225,33 C701.775003,31.466659 702.558328,30.133339 703.575,29 C704.591672,27.866661 705.824993,26.96667 707.275,26.3 C708.725007,25.63333 710.349991,25.3 712.15,25.3 C713.850009,25.3 715.433326,25.6499965 716.9,26.35 C718.366674,27.0500035 719.533329,28.133326 720.4,29.6 L720.5,29.6 L720.5,26 L726.2,26 Z M713.4,30.2 C712.299995,30.2 711.325004,30.399998 710.475,30.8 C709.624996,31.200002 708.908336,31.7416633 708.325,32.425 C707.741664,33.1083367 707.291668,33.916662 706.975,34.85 C706.658332,35.783338 706.5,36.783328 706.5,37.85 C706.5,38.8166715 706.658332,39.7499955 706.975,40.65 C707.291668,41.5500045 707.741664,42.3583297 708.325,43.075 C708.908336,43.7916702 709.624996,44.3666645 710.475,44.8 C711.325004,45.2333355 712.283328,45.45 713.35,45.45 C714.450006,45.45 715.441662,45.2416688 716.325,44.825 C717.208338,44.4083313 717.95833,43.8500035 718.575,43.15 C719.19167,42.4499965 719.666665,41.6416713 720,40.725 C720.333335,39.8083288 720.5,38.850005 720.5,37.85 C720.5,36.8166615 720.333335,35.833338 720,34.9 C719.666665,33.966662 719.19167,33.1500035 718.575,32.45 C717.95833,31.7499965 717.216671,31.200002 716.35,30.8 C715.483329,30.399998 714.500006,30.2 713.4,30.2 Z" id="celebrating"></path>
            </g>
        </g>
    </g>
</svg>