<?xml version="1.0" encoding="UTF-8"?>
<svg width="577px" height="174px" viewBox="0 0 577 174" version="1.1" xmlns="http://www.w3.org/2000/svg" xmlns:xlink="http://www.w3.org/1999/xlink">
    <!-- Generator: Sketch 44.1 (41455) - http://www.bohemiancoding.com/sketch -->
    <title>Group</title>
    <desc>Created with Sketch.</desc>
    <defs>
        <filter x="-1.2%" y="-3.0%" width="102.5%" height="108.4%" filterUnits="objectBoundingBox" id="filter-1">
            <feOffset dx="0" dy="2" in="SourceAlpha" result="shadowOffsetOuter1"></feOffset>
            <feGaussianBlur stdDeviation="2" in="shadowOffsetOuter1" result="shadowBlurOuter1"></feGaussianBlur>
            <feColorMatrix values="0 0 0 0 0   0 0 0 0 0   0 0 0 0 0  0 0 0 0.2 0" type="matrix" in="shadowBlurOuter1" result="shadowMatrixOuter1"></feColorMatrix>
            <feMerge>
                <feMergeNode in="shadowMatrixOuter1"></feMergeNode>
                <feMergeNode in="SourceGraphic"></feMergeNode>
            </feMerge>
        </filter>
    </defs>
    <g id="Page-1" stroke="none" stroke-width="1" fill="none" fill-rule="evenodd" opacity="0.800000012">
        <g id="Desktop-HD" transform="translate(-27.000000, -76.000000)" fill="#FFFFFF">
            <g id="Group" filter="url(#filter-1)" transform="translate(30.000000, 78.000000)">
                <path d="M67.8261745,123.926267 L57.6120805,75.8474654 L57.1530201,75.8474654 L46.9389262,123.926267 L19.0510067,123.926267 L0.573825503,44.9806452 L26.9697987,44.9806452 L36.0362416,89.7317972 L36.495302,89.7317972 L45.4469799,44.9806452 L70.4657718,44.9806452 L79.9912752,89.7317972 L80.4503356,89.7317972 L88.942953,44.9806452 L114.191275,44.9806452 L95.714094,123.926267 L67.8261745,123.926267 Z M173.104027,123.926267 L169.775839,112.795853 L142.11745,112.795853 L138.789262,123.926267 L112.852349,123.926267 L141.658389,44.9806452 L171.15302,44.9806452 L199.95906,123.926267 L173.104027,123.926267 Z M148.161745,95.1248848 L165.261745,95.1248848 L156.998658,67.0119816 L156.539597,67.0119816 L148.161745,95.1248848 Z M282.054362,82.2732719 C279.453007,86.1746739 275.665797,89.0433088 270.692617,90.8792627 L288.251678,123.926267 L259.789933,123.926267 L245.788591,95.1248848 L236.377852,95.1248848 L236.377852,123.926267 L211.014765,123.926267 L211.014765,44.9806452 L259.330872,44.9806452 C264.992646,44.9806452 269.831859,46.0707264 273.848658,48.2509217 C277.865456,50.4311169 280.887574,53.3762487 282.915101,57.0864055 C284.942628,60.7965623 285.956376,64.8317754 285.956376,69.1921659 C285.956376,74.0115448 284.655718,78.3718699 282.054362,82.2732719 Z M258.068456,65.0612903 C256.691268,63.6843249 255.008064,62.9958525 253.018792,62.9958525 L236.377852,62.9958525 L236.377852,77.5686636 L253.018792,77.5686636 C255.008064,77.5686636 256.691268,76.861067 258.068456,75.4458525 C259.445644,74.0306381 260.134228,72.2903329 260.134228,70.2248848 C260.134228,68.1594367 259.445644,66.4382557 258.068456,65.0612903 Z M356.842953,44.9806452 L388.288591,44.9806452 L359.941611,77.4539171 L388.862416,123.926267 L358.908725,123.926267 L342.497315,95.0101382 L328.725503,106.2553 L328.725503,123.926267 L303.362416,123.926267 L303.362416,44.9806452 L328.725503,44.9806452 L328.725503,78.716129 L356.842953,44.9806452 Z M465.869799,54.0456221 C473.291312,61.0069472 477.002013,71.1427906 477.002013,84.4534562 C477.002013,97.7641219 473.291312,107.899965 465.869799,114.86129 C458.448285,121.822615 447.928256,125.303226 434.309396,125.303226 C420.690536,125.303226 410.189634,121.84174 402.806376,114.918664 C395.423117,107.995588 391.731544,97.8406199 391.731544,84.4534562 C391.731544,71.0662925 395.423117,60.9113249 402.806376,53.9882488 C410.189634,47.0651728 420.690536,43.6036866 434.309396,43.6036866 C447.928256,43.6036866 458.448285,47.084297 465.869799,54.0456221 Z M421.914765,67.4709677 C419.083878,70.7603851 417.668456,75.1972071 417.668456,80.7815668 L417.668456,88.1253456 C417.668456,93.7097053 419.083878,98.1465273 421.914765,101.435945 C424.745652,104.725362 428.877154,106.370046 434.309396,106.370046 C439.741638,106.370046 443.892268,104.725362 446.761409,101.435945 C449.630551,98.1465273 451.065101,93.7097053 451.065101,88.1253456 L451.065101,80.7815668 C451.065101,75.1972071 449.630551,70.7603851 446.761409,67.4709677 C443.892268,64.1815504 439.741638,62.5368664 434.309396,62.5368664 C428.877154,62.5368664 424.745652,64.1815504 421.914765,67.4709677 Z M547.12349,123.926267 L513.956376,85.6009217 L513.956376,123.926267 L490.65906,123.926267 L490.65906,44.9806452 L512.808725,44.9806452 L545.975839,83.8797235 L545.975839,44.9806452 L569.273154,44.9806452 L569.273154,123.926267 L547.12349,123.926267 Z" id="WARKON"></path>
                <path d="M47.6810738,148.418917 C48.7139649,149.600812 49.2304027,151.281832 49.2304027,153.462028 L49.2304027,165.235023 L42.3789262,165.235023 L42.3789262,154.288203 C42.3789262,153.507922 42.1895657,152.88256 41.8108389,152.412097 C41.4321122,151.941634 40.8984598,151.706406 40.2098658,151.706406 C39.4065061,151.706406 38.7523515,151.981794 38.2473826,152.532581 C37.7424136,153.083367 37.4899329,153.760365 37.4899329,154.563594 L37.4899329,165.235023 L30.6384564,165.235023 L30.6384564,154.288203 C30.6384564,153.507922 30.4490959,152.88256 30.0703691,152.412097 C29.6916424,151.941634 29.15799,151.706406 28.469396,151.706406 C27.6660363,151.706406 27.0118817,151.981794 26.5069128,152.532581 C26.0019438,153.083367 25.7494631,153.760365 25.7494631,154.563594 L25.7494631,165.235023 L18.8979866,165.235023 L18.8979866,147.059171 L24.51,147.059171 L24.9575839,149.778664 C25.6461779,148.814788 26.5585514,148.051731 27.6947315,147.48947 C28.8309117,146.927209 30.030195,146.646083 31.2926174,146.646083 C34.0240405,146.646083 35.8602638,147.690266 36.8013423,149.778664 C37.5128895,148.814788 38.4252629,148.051731 39.5384899,147.48947 C40.651717,146.927209 41.8165711,146.646083 43.0330872,146.646083 C45.0988694,146.646083 46.6481828,147.237022 47.6810738,148.418917 Z M69.0962416,148.040253 C70.8406799,148.969705 71.7128859,150.478607 71.7128859,152.567005 L71.7128859,159.658341 C71.7128859,160.048481 71.8046971,160.369768 71.9883221,160.622212 C72.1719472,160.874656 72.4473807,161.000876 72.8146309,161.000876 L74.054094,161.000876 L74.054094,164.959631 C73.9852346,165.00553 73.8073504,165.080115 73.5204362,165.183387 C73.2335221,165.28666 72.82611,165.38993 72.2981879,165.493203 C71.7702658,165.596475 71.1620169,165.648111 70.4734228,165.648111 C69.142141,165.648111 68.0461452,165.447306 67.1854027,165.045691 C66.3246601,164.644076 65.7336258,164.087561 65.4122819,163.376129 C64.5400628,164.064612 63.5645692,164.61539 62.4857718,165.028479 C61.4069745,165.441569 60.144571,165.648111 58.6985235,165.648111 C54.4292404,165.648111 52.2946309,163.949879 52.2946309,160.553364 C52.2946309,158.786258 52.7709013,157.438 53.7234564,156.508548 C54.6760115,155.579097 56.0474407,154.94226 57.8377852,154.598018 C59.6281298,154.253777 61.9693144,154.081659 64.8614094,154.081659 L64.8614094,153.186636 C64.8614094,152.475204 64.6146669,151.9359 64.1211745,151.56871 C63.6276821,151.201519 62.9907422,151.017926 62.2103356,151.017926 C61.4987884,151.017926 60.8848012,151.144146 60.3683557,151.39659 C59.8519102,151.649034 59.5936913,152.050642 59.5936913,152.601429 L59.5936913,152.739124 L52.8455034,152.739124 C52.8225502,152.624377 52.8110738,152.463734 52.8110738,152.257189 C52.8110738,150.535982 53.6316361,149.170512 55.2727852,148.160737 C56.9139344,147.150963 59.2608572,146.646083 62.3136242,146.646083 C65.0909535,146.646083 67.3518034,147.110802 69.0962416,148.040253 Z M60.5405034,157.954355 C59.6109014,158.378919 59.1461074,158.946909 59.1461074,159.658341 C59.1461074,160.805812 59.9265023,161.379539 61.4873154,161.379539 C62.3824877,161.379539 63.1686208,161.138574 63.8457383,160.656636 C64.5228557,160.174698 64.8614094,159.578022 64.8614094,158.86659 L64.8614094,157.317512 C62.9103929,157.317512 61.4701053,157.529791 60.5405034,157.954355 Z M93.5756376,148.401705 C94.6314818,149.572126 95.159396,151.258883 95.159396,153.462028 L95.159396,165.235023 L88.3079195,165.235023 L88.3079195,154.288203 C88.3079195,153.507922 88.1070825,152.88256 87.7054027,152.412097 C87.3037228,151.941634 86.7356413,151.706406 86.0011409,151.706406 C85.1518749,151.706406 84.4632912,151.981794 83.9353691,152.532581 C83.407447,153.083367 83.1434899,153.760365 83.1434899,154.563594 L83.1434899,165.235023 L76.2920134,165.235023 L76.2920134,147.059171 L81.9040268,147.059171 L82.3516107,149.813088 C83.0631579,148.849212 83.9984841,148.080418 85.1576174,147.506682 C86.3167508,146.932946 87.5389869,146.646083 88.8243624,146.646083 C90.9360508,146.646083 92.5197934,147.231284 93.5756376,148.401705 Z" id="man"></path>
                <path d="M318.985772,7.80276498 C320.169133,9.23072911 320.760805,11.3420444 320.760805,14.1367742 C320.760805,16.9111045 320.169133,19.0071204 318.985772,20.4248848 C317.80241,21.8426492 316.119206,22.5515207 313.936107,22.5515207 C312.059051,22.5515207 310.549267,21.9395453 309.406711,20.715576 L309.406711,28.2123502 L303.31651,28.2123502 L303.31651,6.02801843 L308.274362,6.02801843 L308.794631,8.32294931 C309.977992,6.54819389 311.691801,5.66082949 313.936107,5.66082949 C316.119206,5.66082949 317.80241,6.37480085 318.985772,7.80276498 Z M310.018792,11.1074654 C309.569931,11.7398496 309.345503,12.5660164 309.345503,13.5859908 L309.345503,14.5957604 C309.345503,15.6157347 309.569931,16.4470014 310.018792,17.0895853 C310.467653,17.7321691 311.140935,18.0534562 312.038658,18.0534562 C313.793297,18.0534562 314.670604,17.0028984 314.670604,14.9017512 L314.670604,13.28 C314.670604,11.1992523 313.793297,10.158894 312.038658,10.158894 C311.140935,10.158894 310.467653,10.4750813 310.018792,11.1074654 Z M323.91302,22.1843318 L323.91302,0 L330.003221,0 L330.003221,22.1843318 L323.91302,22.1843318 Z M347.906577,6.90009217 C349.457189,7.72627141 350.232483,9.0675176 350.232483,10.923871 L350.232483,17.2272811 C350.232483,17.5740724 350.314093,17.8596609 350.477315,18.0840553 C350.640538,18.3084497 350.885367,18.4206452 351.211812,18.4206452 L352.313557,18.4206452 L352.313557,21.9395392 C352.252349,21.9803381 352.094229,22.0466355 351.839195,22.1384332 C351.58416,22.2302309 351.222016,22.3220272 350.752752,22.4138249 C350.283488,22.5056226 349.742822,22.5515207 349.130738,22.5515207 C347.947377,22.5515207 346.973158,22.3730279 346.208054,22.0160369 C345.442949,21.6590458 344.917585,21.1643657 344.631946,20.5319816 C343.85664,21.1439662 342.989535,21.6335466 342.030604,22.0007373 C341.071673,22.3679281 339.949537,22.5515207 338.664161,22.5515207 C334.869243,22.5515207 332.971812,21.0419813 332.971812,18.0228571 C332.971812,16.4520966 333.395164,15.2536447 334.241879,14.4274654 C335.088595,13.6012862 336.307643,13.0352089 337.89906,12.7292166 C339.490478,12.4232243 341.571531,12.2702304 344.142282,12.2702304 L344.142282,11.4746544 C344.142282,10.8422703 343.922955,10.3628895 343.484295,10.0364977 C343.045635,9.71010589 342.479467,9.54691244 341.785772,9.54691244 C341.153285,9.54691244 340.607519,9.65910794 340.148456,9.8835023 C339.689394,10.1078967 339.459866,10.4648823 339.459866,10.95447 L339.459866,11.0768664 L333.461477,11.0768664 C333.441074,10.9748689 333.430872,10.8320747 333.430872,10.6484793 C333.430872,9.1185177 334.160261,7.90476639 335.61906,7.00718894 C337.07786,6.10961149 339.164013,5.66082949 341.877584,5.66082949 C344.346321,5.66082949 346.355965,6.07391292 347.906577,6.90009217 Z M340.301477,15.7126267 C339.475164,16.0900172 339.062013,16.594897 339.062013,17.2272811 C339.062013,18.2472555 339.755698,18.757235 341.143087,18.757235 C341.938796,18.757235 342.637581,18.5430436 343.239463,18.1146544 C343.841345,17.6862651 344.142282,17.1558864 344.142282,16.5235023 L344.142282,15.1465438 C342.408045,15.1465438 341.127789,15.3352362 340.301477,15.7126267 Z" id="pla"></path>
            </g>
        </g>
    </g>
</svg>